<svg width="40" height="40" viewBox="0 0 40 40" fill="none" xmlns="http://www.w3.org/2000/svg">
<rect width="4.73569" height="14.8755" rx="2.36784" transform="matrix(-0.139173 -0.990268 -0.990268 0.139173 24.8672 35.9298)" fill="#DADADA"/>
<rect x="24.8672" y="3.97705" width="4.73569" height="14.8755" rx="2.36784" transform="rotate(98 24.8672 3.97705)" fill="#DADADA"/>
<path d="M10.2481 8.02463L18.6202 9.16506C23.9225 10.3056 28.6667 12.8718 28.6667 20C28.6667 27.1282 24.4806 29.9794 18.6202 30.8348L10.2481 31.9754C6.62016 32.2605 4.66667 30.0521 4.66667 26.2728L4.66667 13.7272C4.66667 9.94787 6.62016 7.73948 10.2481 8.02463Z" fill="#DADADA"/>
<path d="M29.5767 7.33332C26 7.99999 30.2433 12.6667 30.2433 20C30.2433 27.3333 26 32 29.5767 32.6667C33.1242 32.6667 36 26.9956 36 20C36 13.0044 33.1242 7.33332 29.5767 7.33332Z" fill="#DADADA"/>
</svg>
